<svg width="82" height="48" viewBox="0 0 82 48" fill="none" xmlns="http://www.w3.org/2000/svg">
<path d="M35.0464 0.118706C41.4784 -0.506485 53.9853 1.45904 57.1119 3.24566C64.9504 6.45282 72.2561 14.8116 72.2974 14.8589C73.6371 17.0919 73.7274 17.0035 74.6207 18.522C76.8541 22.0963 81.197 33.679 80.8736 36.8355L81.231 46.5728C81.296 46.8869 80.9157 47.1671 79.6226 47.8228L2.08356 48.0015C0.427491 47.4467 -0.137563 46.9408 0.0288689 45.4107C0.0308095 45.3402 0.297242 35.6724 0.386291 34.8697C0.475693 34.0655 2.79798 24.3279 4.76324 21.2906C6.72871 17.0025 14.0542 8.69514 18.7886 6.01519C23.523 3.3353 27.007 1.90532 35.0464 0.118706ZM45.4088 3.15582C39.445 2.78854 36.4185 3.08647 31.2945 4.04937C27.3442 5.01911 25.1345 5.9721 21.2007 8.15874C18.3096 9.87346 16.4764 11.1954 12.1783 15.3052C10.1608 18.1639 8.97199 19.6658 7.26422 23.0777C5.21772 27.457 4.22344 30.0189 3.24469 35.1382C2.83231 38.5103 3.06387 43.8439 3.06598 43.8921L3.78082 45.232C3.86121 45.2335 13.2521 45.41 13.6968 45.1431C14.1475 44.8756 20.7549 45.1431 23.0767 45.1431C25.3991 45.1425 29.1498 42.5918 28.0787 41.8375C27.3533 40.9121 26.9336 40.4168 26.3814 39.1578C25.7157 36.3909 25.7404 34.6544 25.5777 31.6539C25.6133 28.0361 25.6838 26.3194 25.5777 21.8267C25.3147 20.5847 25.5289 19.9845 26.1138 18.9683C29.4314 16.7896 32.0046 16.1881 38.9771 16.0201C45.2299 16.0201 47.052 16.3232 50.5904 17.4498C52.6899 19.0499 53.5079 20.0837 53.3599 22.8101L55.9498 22.6314C59.4949 23.001 61.2325 23.6574 62.5611 27.9908C62.8908 31.4271 62.6977 33.3711 60.3277 36.9244C57.5519 38.306 55.8607 39.7833 51.6627 40.4087C50.9481 40.6767 50.2332 42.9094 50.6793 42.9996C51.1269 43.0895 53.1833 44.0406 55.9498 45.3218L76.9429 45.1431C77.6499 45.2043 77.8102 44.9294 77.7466 43.982C78.1174 40.3538 78.4612 38.3534 77.7466 34.691C77.0367 31.0524 75.2688 26.2673 75.2457 26.2046C73.256 21.6707 71.982 20.0839 69.7964 16.7349C65.983 12.2456 63.8897 10.917 60.149 8.33746C54.8684 5.19671 51.5539 4.26439 45.4088 3.15582ZM59.9693 27.7222C59.8797 27.0073 58.3613 24.8097 55.5923 25.4C54.8933 25.5489 53.1802 25.4 53.1802 27.2759V34.7798C53.0148 36.6572 52.8638 37.8188 53.8951 37.4595C56.1461 36.6932 57.4636 36.3156 58.898 34.7798C61.2204 32.2932 59.9693 27.7222 59.9693 27.7222ZM29.0611 25.5787C28.9718 23.8813 28.0272 23.8525 27.9888 24.6851L28.0787 33.5289C28.0762 34.13 29.0609 33.8865 29.0611 33.2613V25.5787ZM46.2125 18.6099C46.1694 18.6054 39.4125 17.8971 36.1177 18.3423C32.4557 18.6103 33.0808 18.6994 30.9371 19.146C28.7931 19.5927 27.4009 20.9098 29.2398 21.7369C31.4731 22.4515 39.0952 23.806 43.9791 22.898C47.1453 22.4862 49.084 22.1616 50.5894 21.2007C52.2867 20.0394 47.2844 18.6099 46.2125 18.6099Z" fill="#F0E1CC"/>
</svg>
