<svg width="48" height="48" viewBox="0 0 48 48" fill="none" xmlns="http://www.w3.org/2000/svg">
<g clip-path="url(#clip0_317_1052)">
<path d="M24 0C10.7666 0 0 10.7666 0 24C0 37.2334 10.7666 48 24 48C37.2334 48 48 37.2334 48 24C48 10.7666 37.2334 0 24 0ZM24 45C12.4204 45 3 35.5796 3 24C3 12.4204 12.4204 3 24 3C35.5796 3 45 12.4204 45 24C45 35.5796 35.5796 45 24 45ZM32.5605 21.4395C33.1466 22.0256 33.1466 22.9748 32.5605 23.5605C32.2676 23.8534 31.8836 24 31.5 24C31.1164 24 30.7324 23.8534 30.4395 23.5605L25.5 18.621V33C25.5 33.8291 24.8284 34.5 24 34.5C23.1716 34.5 22.5 33.8291 22.5 33V18.621L17.5605 23.5605C16.9744 24.1466 16.0252 24.1466 15.4395 23.5605C14.8538 22.9744 14.8534 22.0252 15.4395 21.4395L22.9395 13.9395C23.5256 13.3534 24.4748 13.3534 25.0605 13.9395L32.5605 21.4395Z" fill="#F0E1CC"/>
</g>
<defs>
<clipPath id="clip0_317_1052">
<rect width="48" height="48" fill="white"/>
</clipPath>
</defs>
</svg>
