<svg width="18" height="22" viewBox="0 0 18 22" fill="none" xmlns="http://www.w3.org/2000/svg">
<path d="M17.5605 10.5605C18.1466 9.97475 18.1466 9.02563 17.5605 8.4395L10.0605 0.939502C9.47475 0.353377 8.52562 0.353377 7.9395 0.939502L0.439499 8.4395C-0.146626 9.02525 -0.146251 9.97437 0.439499 10.5605C1.02525 11.1466 1.97437 11.1466 2.5605 10.5605L7.5 5.621V20C7.5 20.8291 8.17162 21.5 9 21.5C9.82837 21.5 10.5 20.8291 10.5 20V5.621L15.4395 10.5605C15.7324 10.8534 16.1164 11 16.5 11C16.8836 11 17.2676 10.8534 17.5605 10.5605Z" fill="#F0E1CC"/>
</svg>
