<svg width="512" height="508" viewBox="0 0 512 508" fill="none" xmlns="http://www.w3.org/2000/svg">
<path d="M48.5361 506.793C35.9833 507.523 23.6381 503.35 14.1037 495.154C-4.69994 476.238 -4.69994 445.688 14.1037 426.773L425.843 15.0325C445.4 -3.26805 476.089 -2.25073 494.39 17.3067C510.938 34.9925 511.903 62.1759 496.648 80.9891L82.483 495.154C73.0716 503.232 60.9245 507.397 48.5361 506.793Z" fill="#F0E1CC"/>
<path d="M459.791 506.793C447.069 506.739 434.875 501.689 425.842 492.729L14.1018 80.9875C-3.31886 60.6443 -0.950431 30.0288 19.3928 12.6066C37.5497 -2.94227 64.3274 -2.94227 82.4827 12.6066L496.647 424.347C516.2 442.652 517.211 473.343 498.906 492.896C498.177 493.673 497.425 494.426 496.647 495.154C486.506 503.973 473.16 508.187 459.791 506.793Z" fill="#F0E1CC"/>
</svg>
