<svg width="24" height="24" viewBox="0 0 24 24" fill="none" xmlns="http://www.w3.org/2000/svg">
<g clip-path="url(#clip0_317_1027)">
<path d="M17.9996 0H5.99985C2.70023 0 0 2.70023 0 5.99985V18.0001C0 21.2989 2.70023 24 5.99985 24H17.9996C21.2992 24 23.9994 21.2989 23.9994 18.0001V5.99985C23.9994 2.70023 21.2992 0 17.9996 0ZM21.9994 18.0001C21.9994 20.2051 20.2057 22 17.9996 22H5.99985C3.79461 22 2.00005 20.2051 2.00005 18.0001V5.99985C2.00005 3.79432 3.79461 2.00005 5.99985 2.00005H17.9996C20.2057 2.00005 21.9994 3.79432 21.9994 5.99985V18.0001Z" fill="#F0E1CC"/>
<path d="M18.5009 6.99993C19.3293 6.99993 20.0009 6.32837 20.0009 5.49996C20.0009 4.67156 19.3293 4 18.5009 4C17.6725 4 17.001 4.67156 17.001 5.49996C17.001 6.32837 17.6725 6.99993 18.5009 6.99993Z" fill="#F0E1CC"/>
<path d="M11.9999 6C8.68552 6 6 8.68581 6 11.9999C6 15.3127 8.68552 18.0003 11.9999 18.0003C15.3132 18.0003 17.9997 15.3127 17.9997 11.9999C17.9997 8.68581 15.3132 6 11.9999 6ZM11.9999 16.0002C9.79098 16.0002 8.00005 14.2093 8.00005 11.9999C8.00005 9.7904 9.79098 8.00005 11.9999 8.00005C14.2087 8.00005 15.9997 9.7904 15.9997 11.9999C15.9997 14.2093 14.2087 16.0002 11.9999 16.0002Z" fill="#F0E1CC"/>
</g>
<defs>
<clipPath id="clip0_317_1027">
<rect width="24" height="24" fill="white"/>
</clipPath>
</defs>
</svg>
