<svg width="24" height="24" viewBox="0 0 24 24" fill="none" xmlns="http://www.w3.org/2000/svg">
<g clip-path="url(#clip0_317_1000)">
<path d="M11.4024 23.674C11.5327 23.8694 11.752 23.9867 11.9868 23.9867C12.2216 23.9867 12.4409 23.8694 12.5712 23.674C14.2334 21.1808 16.6816 18.1016 18.3877 14.97C19.7518 12.4661 20.415 10.3305 20.415 8.44139C20.415 3.79408 16.6341 0.0131836 11.9868 0.0131836C7.33949 0.0131836 3.55859 3.79408 3.55859 8.44139C3.55859 10.3305 4.22175 12.4661 5.5859 14.97C7.2907 18.0992 9.74363 21.1859 11.4024 23.674ZM11.9868 1.41788C15.8596 1.41788 19.0103 4.56863 19.0103 8.44139C19.0103 10.0898 18.4031 12.0055 17.1542 14.298C15.6836 16.9973 13.5851 19.7355 11.9868 22.0374C10.3888 19.7358 8.29009 16.9975 6.81942 14.298C5.57045 12.0055 4.96329 10.0898 4.96329 8.44139C4.96329 4.56863 8.11404 1.41788 11.9868 1.41788Z" fill="#F0E1CC"/>
<path d="M11.9866 12.6553C14.3102 12.6553 16.2007 10.7648 16.2007 8.44115C16.2007 6.1175 14.3102 4.22705 11.9866 4.22705C9.66291 4.22705 7.77246 6.1175 7.77246 8.44115C7.77246 10.7648 9.66291 12.6553 11.9866 12.6553ZM11.9866 5.63175C13.5357 5.63175 14.796 6.89205 14.796 8.44115C14.796 9.99026 13.5357 11.2506 11.9866 11.2506C10.4375 11.2506 9.17716 9.99026 9.17716 8.44115C9.17716 6.89205 10.4375 5.63175 11.9866 5.63175Z" fill="#F0E1CC"/>
</g>
<defs>
<clipPath id="clip0_317_1000">
<rect width="23.9736" height="23.9736" fill="white" transform="translate(0 0.0131836)"/>
</clipPath>
</defs>
</svg>
