<svg width="512" height="512" viewBox="0 0 512 512" fill="none" xmlns="http://www.w3.org/2000/svg">
<path d="M170.667 229.333H85.3337C69.7778 229.322 54.8622 223.137 43.8625 212.138C32.8629 201.138 26.6783 186.223 26.667 170.667V85.3333C26.6783 69.7774 32.8629 54.8619 43.8625 43.8622C54.8622 32.8625 69.7778 26.678 85.3337 26.6667H170.667C186.223 26.678 201.138 32.8625 212.138 43.8622C223.138 54.8619 229.322 69.7774 229.334 85.3333V170.667C229.322 186.223 223.138 201.138 212.138 212.138C201.138 223.137 186.223 229.322 170.667 229.333ZM85.3337 58.6667C78.2647 58.6779 71.4885 61.4911 66.4899 66.4896C61.4914 71.4881 58.6783 78.2643 58.667 85.3333V170.667C58.6783 177.736 61.4914 184.512 66.4899 189.51C71.4885 194.509 78.2647 197.322 85.3337 197.333H170.667C177.736 197.322 184.512 194.509 189.511 189.51C194.509 184.512 197.322 177.736 197.334 170.667V85.3333C197.322 78.2643 194.509 71.4881 189.511 66.4896C184.512 61.4911 177.736 58.6779 170.667 58.6667H85.3337Z" fill="#F0E1CC"/>
<path d="M426.667 229.333H341.334C325.778 229.322 310.862 223.137 299.863 212.138C288.863 201.138 282.678 186.223 282.667 170.667V85.3333C282.678 69.7774 288.863 54.8619 299.863 43.8622C310.862 32.8625 325.778 26.678 341.334 26.6667H426.667C442.223 26.678 457.138 32.8625 468.138 43.8622C479.138 54.8619 485.322 69.7774 485.334 85.3333V170.667C485.322 186.223 479.138 201.138 468.138 212.138C457.138 223.137 442.223 229.322 426.667 229.333ZM341.334 58.6667C334.265 58.6779 327.488 61.4911 322.49 66.4896C317.491 71.4881 314.678 78.2643 314.667 85.3333V170.667C314.678 177.736 317.491 184.512 322.49 189.51C327.488 194.509 334.265 197.322 341.334 197.333H426.667C433.736 197.322 440.512 194.509 445.511 189.51C450.509 184.512 453.322 177.736 453.334 170.667V85.3333C453.322 78.2643 450.509 71.4881 445.511 66.4896C440.512 61.4911 433.736 58.6779 426.667 58.6667H341.334Z" fill="#F0E1CC"/>
<path d="M170.667 485.333H85.3337C69.7778 485.322 54.8622 479.137 43.8625 468.138C32.8629 457.138 26.6783 442.223 26.667 426.667V341.333C26.6783 325.777 32.8629 310.862 43.8625 299.862C54.8622 288.862 69.7778 282.678 85.3337 282.667H170.667C186.223 282.678 201.138 288.862 212.138 299.862C223.138 310.862 229.322 325.777 229.334 341.333V426.667C229.322 442.223 223.138 457.138 212.138 468.138C201.138 479.137 186.223 485.322 170.667 485.333ZM85.3337 314.667C78.2647 314.678 71.4885 317.491 66.4899 322.49C61.4914 327.488 58.6783 334.264 58.667 341.333V426.667C58.6783 433.736 61.4914 440.512 66.4899 445.51C71.4885 450.509 78.2647 453.322 85.3337 453.333H170.667C177.736 453.322 184.512 450.509 189.511 445.51C194.509 440.512 197.322 433.736 197.334 426.667V341.333C197.322 334.264 194.509 327.488 189.511 322.49C184.512 317.491 177.736 314.678 170.667 314.667H85.3337Z" fill="#F0E1CC"/>
<path d="M426.667 485.333H341.334C325.778 485.322 310.862 479.137 299.863 468.138C288.863 457.138 282.678 442.223 282.667 426.667V341.333C282.678 325.777 288.863 310.862 299.863 299.862C310.862 288.862 325.778 282.678 341.334 282.667H426.667C442.223 282.678 457.138 288.862 468.138 299.862C479.138 310.862 485.322 325.777 485.334 341.333V426.667C485.322 442.223 479.138 457.138 468.138 468.138C457.138 479.137 442.223 485.322 426.667 485.333ZM341.334 314.667C334.265 314.678 327.488 317.491 322.49 322.49C317.491 327.488 314.678 334.264 314.667 341.333V426.667C314.678 433.736 317.491 440.512 322.49 445.51C327.488 450.509 334.265 453.322 341.334 453.333H426.667C433.736 453.322 440.512 450.509 445.511 445.51C450.509 440.512 453.322 433.736 453.334 426.667V341.333C453.322 334.264 450.509 327.488 445.511 322.49C440.512 317.491 433.736 314.678 426.667 314.667H341.334Z" fill="#F0E1CC"/>
</svg>
