<svg width="512" height="512" viewBox="0 0 512 512" fill="none" xmlns="http://www.w3.org/2000/svg">
<path d="M464 128H48C30.328 128 16 113.672 16 96C16 78.328 30.328 64 48 64H464C481.672 64 496 78.328 496 96C496 113.672 481.672 128 464 128Z" fill="#F0E1CC"/>
<path d="M464 448H48C30.328 448 16 433.672 16 416C16 398.328 30.328 384 48 384H464C481.672 384 496 398.328 496 416C496 433.672 481.672 448 464 448Z" fill="#F0E1CC"/>
<path d="M464 288H48C30.328 288 16 273.672 16 256C16 238.328 30.328 224 48 224H464C481.672 224 496 238.328 496 256C496 273.672 481.672 288 464 288Z" fill="#F0E1CC"/>
</svg>
